<?xml version="1.0" encoding="UTF-8"?>
<svg xmlns="http://www.w3.org/2000/svg" width="900" height="900" viewBox="0 0 900 900" role="img" aria-label="Android Phone">
  <rect width="900" height="900" fill="#f8fafc"/>
  <rect x="76" y="70" width="748" height="760" rx="48" fill="#ffffff" stroke="#e5e7eb" stroke-width="4"/>
  <circle cx="720" cy="170" r="70" fill="#22c55e" opacity="0.16"/>
  <circle cx="238" cy="716" r="84" fill="#22c55e" opacity="0.12"/>
  <g transform="translate(250 120)">
    <rect x="0" y="0" width="236" height="500" rx="42" fill="#111827"/>
    <rect x="18" y="38" width="200" height="404" rx="30" fill="#0f172a"/>
    <rect x="78" y="16" width="80" height="12" rx="6" fill="#1f2937"/>
    <circle cx="118" cy="462" r="10" fill="#f8fafc" opacity="0.85"/>
    <rect x="42" y="84" width="152" height="80" rx="20" fill="#ffffff" opacity="0.18"/>
    <rect x="42" y="192" width="152" height="24" rx="12" fill="#ffffff" opacity="0.28"/>
    <rect x="42" y="238" width="112" height="24" rx="12" fill="#ffffff" opacity="0.2"/>
    <circle cx="72" cy="338" r="30" fill="#22c55e" opacity="0.88"/>
    <circle cx="142" cy="338" r="30" fill="#ffffff" opacity="0.28"/>
  </g>
  
  <text x="450" y="715" text-anchor="middle" font-family="Arial, Helvetica, sans-serif" font-size="42" font-weight="800" fill="#111827">Android Phone</text>
  <text x="450" y="765" text-anchor="middle" font-family="Arial, Helvetica, sans-serif" font-size="28" font-weight="600" fill="#64748b">Unlocked smartphone option</text>
</svg>